<?xml version="1.0" standalone="no"?>
<!DOCTYPE svg PUBLIC "-//W3C//DTD SVG 20010904//EN"
 "http://www.w3.org/TR/2001/REC-SVG-20010904/DTD/svg10.dtd">
<svg version="1.0" xmlns="http://www.w3.org/2000/svg"
 width="640.000000pt" height="640.000000pt" viewBox="0 0 640.000000 640.000000"
 preserveAspectRatio="xMidYMid meet">

<g transform="translate(0.000000,640.000000) scale(0.100000,-0.100000)"
fill="#000000" stroke="none">
<path d="M0 3200 l0 -3200 3200 0 3200 0 0 3200 0 3200 -3200 0 -3200 0 0
-3200z m3465 2091 c1007 -134 1768 -944 1834 -1949 11 -174 -8 -482 -30 -482
-5 0 -6 -12 -3 -26 5 -20 4 -25 -6 -19 -9 6 -10 0 -5 -25 5 -25 4 -31 -5 -25
-10 6 -11 -1 -6 -31 4 -24 3 -34 -2 -26 -12 17 -25 -40 -15 -65 4 -10 2 -14
-4 -10 -13 8 -97 -229 -87 -245 4 -6 3 -8 -3 -5 -5 3 -29 -35 -54 -85 -263
-544 -774 -959 -1363 -1109 -261 -67 -517 -83 -767 -50 -456 61 -848 245
-1179 553 -57 53 -106 95 -109 92 -2 -2 9 -18 25 -36 16 -17 24 -28 17 -25 -6
4 -31 31 -54 60 -24 29 -31 41 -16 28 15 -14 27 -20 27 -14 0 12 -45 55 -52
48 -2 -3 -15 7 -29 23 l-24 27 28 -24 c15 -14 27 -20 27 -14 0 12 -45 55 -52
48 -2 -3 -15 7 -29 23 l-24 27 28 -24 c15 -14 27 -20 27 -14 0 12 -42 52 -55
52 -5 0 -16 10 -24 23 -12 21 -12 21 8 -2 37 -45 22 -11 -36 78 -31 48 -72
114 -91 147 -18 33 -31 51 -28 40 l6 -20 -15 20 c-9 11 -14 28 -11 38 2 9 1
15 -4 12 -11 -7 -22 24 -13 37 3 6 2 8 -4 5 -25 -15 -118 265 -157 473 -149
784 167 1591 812 2072 431 321 992 469 1517 399z m-2052 -3178 c5 -7 6 -13 3
-13 -7 0 -76 113 -76 124 0 5 15 -15 33 -45 18 -30 36 -60 40 -66z m48 -78
l10 -20 -16 20 c-9 11 -21 29 -26 40 l-10 20 16 -20 c9 -11 21 -29 26 -40z
m329 -380 c30 -30 52 -55 49 -55 -2 0 -29 25 -59 55 -30 30 -52 55 -49 55 2 0
29 -25 59 -55z"/>
<path d="M3023 5189 c-1078 -104 -1883 -1047 -1805 -2114 20 -268 72 -472 181
-714 241 -533 740 -946 1316 -1090 333 -83 655 -81 983 5 246 65 449 158 657
302 132 92 371 326 458 449 261 368 387 754 387 1181 -1 538 -214 1043 -598
1420 -415 407 -1005 617 -1579 561z m427 -160 c74 -10 182 -32 240 -48 98 -27
303 -103 325 -121 6 -4 46 -27 90 -50 245 -130 491 -363 662 -629 68 -104 153
-276 175 -351 9 -30 26 -82 38 -114 12 -32 26 -84 31 -115 13 -72 30 -121 41
-115 4 3 8 -1 8 -9 0 -8 8 -21 17 -28 15 -12 16 -12 10 4 -3 9 -3 17 2 17 32
0 53 -206 40 -385 -27 -355 -126 -660 -303 -933 -306 -472 -778 -775 -1344
-862 -317 -49 -699 -5 -992 116 -552 226 -956 661 -1130 1219 -36 114 -60 256
-59 337 1 26 6 37 19 41 16 4 18 18 19 123 3 363 70 635 225 917 128 232 128
233 217 339 407 488 1047 736 1669 647z"/>
<path d="M3193 4953 c-9 -3 -13 -28 -13 -74 0 -62 2 -69 20 -69 18 0 20 7 20
69 0 70 -4 82 -27 74z"/>
<path d="M2322 4718 c-8 -8 -3 -27 21 -69 31 -56 49 -70 62 -49 6 10 -48 114
-64 124 -4 3 -13 0 -19 -6z"/>
<path d="M4027 4666 c-32 -57 -34 -75 -5 -76 6 0 78 115 78 124 0 2 -8 6 -19
9 -14 3 -26 -10 -54 -57z"/>
<path d="M3176 4658 c-3 -13 -10 -273 -15 -578 -6 -305 -14 -618 -17 -695 l-6
-141 -82 -44 c-59 -33 -81 -51 -81 -65 0 -18 6 -20 69 -17 l70 4 -26 -34 c-14
-18 -56 -77 -94 -132 -89 -127 -94 -134 -263 -371 -78 -110 -154 -217 -169
-238 -15 -21 -41 -57 -58 -80 -110 -149 -175 -250 -166 -259 6 -6 50 46 122
144 378 513 446 605 605 818 l90 120 11 -53 c12 -62 20 -77 39 -77 15 0 26 32
45 136 l12 61 471 170 c399 143 472 173 475 190 7 46 15 48 -687 -158 -112
-33 -205 -58 -207 -56 -2 2 6 16 18 32 16 20 19 32 11 43 -17 27 -31 24 -56
-12 l-24 -36 -6 212 c-4 117 -10 364 -13 548 -4 184 -9 391 -13 460 -6 119 -7
125 -28 128 -17 2 -24 -3 -27 -20z"/>
<path d="M1684 4079 c-8 -14 8 -29 67 -63 40 -22 48 -24 58 -12 10 12 1 21
-49 50 -69 41 -66 40 -76 25z"/>
<path d="M4648 4057 c-62 -34 -62 -35 -49 -56 7 -11 20 -6 67 21 54 32 74 57
49 64 -5 2 -36 -11 -67 -29z"/>
<path d="M1450 3200 c0 -18 7 -20 70 -20 63 0 70 2 70 20 0 18 -7 20 -70 20
-63 0 -70 -2 -70 -20z"/>
<path d="M4810 3200 c0 -18 7 -20 75 -20 68 0 75 2 75 20 0 18 -7 20 -75 20
-68 0 -75 -2 -75 -20z"/>
<path d="M1735 2373 c-33 -19 -61 -36 -62 -37 -1 -1 2 -8 6 -15 7 -11 21 -7
70 20 56 31 73 50 53 62 -4 3 -34 -11 -67 -30z"/>
<path d="M4601 2396 c-13 -16 -9 -19 62 -60 38 -22 52 -25 60 -16 13 13 3 21
-74 67 -30 19 -39 20 -48 9z"/>
<path d="M2373 1798 c-13 -18 -63 -105 -63 -111 0 -3 7 -7 15 -11 10 -3 25 13
50 55 32 55 37 79 16 79 -5 0 -13 -6 -18 -12z"/>
<path d="M4004 1797 c-5 -15 53 -127 67 -127 23 0 18 32 -11 84 -32 56 -46 67
-56 43z"/>
<path d="M3185 1567 c-4 -13 -5 -45 -3 -73 2 -37 7 -50 21 -52 15 -3 17 6 17
72 0 60 -3 76 -15 76 -8 0 -17 -10 -20 -23z"/>
</g>
</svg>
